<svg width="1838" height="476" viewBox="0 0 1838 476" fill="none" xmlns="http://www.w3.org/2000/svg">
    <path
        d="M411.165 187.541C453.351 187.541 487.549 221.739 487.549 263.921C487.549 306.102 521.749 340.3 563.933 340.3H577.274C626.829 340.3 666.998 380.467 666.998 430.02V480.682C666.998 494.074 674.94 506.196 687.224 511.542C692.488 513.828 697.076 517.428 700.555 521.99L784.991 632.693C805.85 660.044 835.116 679.782 868.291 688.874L1837.08 954.477L524.998 678.223C514.367 675.984 503.527 674.854 492.66 674.854H-119.846C-191.817 674.854 -254.565 625.908 -272.08 556.105L-334.138 308.791C-341.749 278.459 -339.165 246.469 -326.786 217.753L-256.574 54.8812C-213.874 -44.1664 -31.3749 3.24707 -26.4995 111C-24.0435 165.277 -14.5491 187.541 39.7908 187.541H411.165Z"
        fill="url(#paint0_linear_5791_1643)" fill-opacity="0.2" />
    <defs>
        <linearGradient id="paint0_linear_5791_1643" x1="668.045" y1="516.863" x2="-242.795"
            y2="179.661" gradientUnits="userSpaceOnUse">
            <stop stop-color="white" stop-opacity="0.27" />
            <stop offset="0.660073" stop-color="white" stop-opacity="0.826664" />
            <stop offset="1" stop-color="white" />
        </linearGradient>
    </defs>
</svg>