<svg width="751" height="391" viewBox="0 0 751 391" fill="none" xmlns="http://www.w3.org/2000/svg">
<path d="M750.328 253.925V19.1619V-154H173.264L-81 -6.60303L-80.9999 45.8426C-80.9999 132.52 -10.7295 202.787 75.9531 202.787H192.752H402.204C444.073 202.787 478.015 236.727 478.015 278.594C478.015 340.163 527.931 390.074 589.504 390.074H614.172C689.368 390.074 750.328 329.118 750.328 253.925Z" fill="url(#paint0_linear_5704_9294)" fill-opacity="0.1"/>
<path d="M750.328 253.925V19.1619V-154H173.264L-81 -6.60303L-80.9999 45.8426C-80.9999 132.52 -10.7295 202.787 75.9531 202.787H192.752H402.204C444.073 202.787 478.015 236.727 478.015 278.594C478.015 340.163 527.931 390.074 589.504 390.074H614.172C689.368 390.074 750.328 329.118 750.328 253.925Z" fill="url(#paint1_linear_5704_9294)" fill-opacity="0.1"/>
<defs>
<linearGradient id="paint0_linear_5704_9294" x1="91.3868" y1="22.824" x2="705.842" y2="374.409" gradientUnits="userSpaceOnUse">
<stop stop-color="white"/>
<stop offset="0.552083" stop-color="white" stop-opacity="0.6"/>
<stop offset="1" stop-color="white" stop-opacity="0.85"/>
</linearGradient>
<linearGradient id="paint1_linear_5704_9294" x1="542.5" y1="21.5" x2="945.42" y2="1704.02" gradientUnits="userSpaceOnUse">
<stop stop-color="white"/>
<stop offset="1" stop-color="#C92400" stop-opacity="0"/>
</linearGradient>
</defs>
</svg>
